# xmcd
#
# Track frame offsets:
#	150
#	13816
#	30754
#	45246
#	61090
#	76405
#	99125
#	112516
#	129946
#	147422
#	160388
#	176827
#	210806
#
# Disc length: 2867 seconds
#
# Revision: 1
# Processed by: cddbd v1.5.2PL0 Copyright (c) Steve Scherf et al.
# Submitted via: audiograbber 1.82.02
#
DISCID=8d0b310d
DTITLE=Brian Letton - Land Of Waltzing Matilda
DYEAR=2006
DGENRE=Country
TTITLE0=The Land Of Waltzing Matilda
TTITLE1=Sing Australia
TTITLE2=The One's Who Remain
TTITLE3=Half The Man
TTITLE4=The Bushland Here At Night
TTITLE5=The Legend Of Old Billy
TTITLE6=Two Hundred Flags
TTITLE7=Rocking Horse
TTITLE8=Grandpa's Scars
TTITLE9=Only A Trooper Would Know
TTITLE10=Who's To Blame
TTITLE11=The Man From Snowy River
TTITLE12=The Land Of Waltzing Matilds - Reprise
EXTD=
EXTT0=
EXTT1=
EXTT2=
EXTT3=
EXTT4=
EXTT5=
EXTT6=
EXTT7=
EXTT8=
EXTT9=
EXTT10=
EXTT11=
EXTT12=
PLAYORDER=
